<?xml version="1.0" encoding="utf-8"?><!DOCTYPE svg PUBLIC "-//W3C//DTD SVG 1.1//EN" "http://www.w3.org/Graphics/SVG/1.1/DTD/svg11.dtd"><svg version="1.1" id="Contours" xmlns="http://www.w3.org/2000/svg" xmlns:xlink="http://www.w3.org/1999/xlink" x="0px" y="0px" width="1221.321289px" height="1221.321289px" viewBox="0.000015 0.000002 1221.321289 1798.354614" enable-background="new 0 0 1221.321289 1221.321289" xml:space="preserve" stroke="black" fill="none" stroke-linecap='round' stroke-linejoin='round'><path class="selected"  fill="#000000" opacity="1.000000" stroke="none" 
 	d="
M598.355179 1578.783300 C581.050614 1573.033300 563.787796 1568.095312 546.999405 1561.876684 C529.857132 1555.526953 514.336686 1545.775366 499.713517 1534.916723 C486.509598 1525.111913 474.851029 1513.543798 465.435379 1499.885351 C454.844376 1484.521703 446.587540 1468.118383 443.149369 1449.624731 C441.556839 1441.058691 439.875809 1432.444921 439.257340 1423.779760 C438.586441 1414.380224 438.319901 1404.812109 439.314652 1395.470678 C440.424759 1385.045141 442.245743 1374.508886 445.364518 1364.522802 C451.753922 1344.064428 462.455399 1325.814062 476.240738 1309.314306 C490.651139 1292.066503 508.033036 1278.545263 527.153702 1267.007543 C540.866715 1258.732641 555.218277 1251.940283 570.753251 1247.943701 C583.136246 1244.758032 595.508866 1241.261205 608.100235 1239.229711 C621.740921 1237.029150 635.610917 1236.102514 649.416459 1235.118383 C660.080887 1234.358129 670.817704 1233.822119 681.490921 1234.165258 C696.259842 1234.639868 711.029374 1235.718603 725.741898 1237.129492 C738.262650 1238.330175 750.730301 1240.188696 763.169754 1242.093603 C772.026688 1243.449804 780.785721 1245.434179 789.613358 1246.997289 C792.768754 1247.555761 795.993241 1247.747778 799.193436 1248.023901 C807.247879 1248.718969 815.314042 1249.992407 823.361649 1249.894872 C837.424515 1249.724828 851.482254 1248.795263 865.531571 1247.996923 C873.766556 1247.529272 882.029984 1247.057592 890.191483 1245.938452 C899.388016 1244.677587 908.596268 1243.138403 917.599198 1240.911352 C932.205399 1237.298559 946.970047 1233.908911 961.065751 1228.773046 C973.900345 1224.096777 986.255204 1217.799536 998.221756 1211.139257 C1008.209427 1205.580541 1017.842972 1199.090917 1026.690140 1191.859472 C1035.868485 1184.357275 1043.953202 1175.509130 1052.442948 1167.175024 C1063.429642 1156.389868 1070.336991 1142.864111 1076.290970 1129.057470 C1081.468094 1117.052221 1085.302689 1104.410986 1088.941727 1091.822729 C1090.864823 1085.170629 1091.503983 1078.061743 1092.019242 1071.106909 C1092.984696 1058.072241 1094.347611 1044.964697 1093.847977 1031.952734 C1093.354569 1019.100073 1091.493241 1006.178442 1088.908402 993.558203 C1085.647294 977.635595 1079.461136 962.571264 1072.089188 948.066503 C1063.493363 931.153784 1053.450150 915.261938 1039.636429 901.984594 C1035.145096 897.667700 1031.324540 892.652746 1026.832474 888.336523 C1008.712967 870.925878 989.716507 854.580419 968.458573 841.019323 C952.626664 830.919470 937.051468 820.405737 921.039628 810.602758 C906.344803 801.606054 891.275223 793.213171 876.264237 784.743444 C864.936844 778.352087 853.517533 772.113683 842.003617 766.065161 C821.482254 755.285009 800.926712 744.565161 780.258011 734.071630 C760.029252 723.801489 739.576737 713.972082 719.342850 703.711584 C702.524857 695.183264 685.696366 686.644323 669.208817 677.503393 C649.243729 666.434423 629.527421 654.904089 609.901078 643.240759 C593.946488 633.759435 577.957535 624.270605 562.582657 613.897375 C547.216385 603.529882 532.320755 592.407751 517.734574 580.959326 C506.757035 572.343298 496.605790 562.675878 486.060624 553.506567 C483.508988 551.287817 480.932450 549.079443 478.196732 547.102270 C477.419571 546.540563 476.040543 546.811682 474.937516 546.700903 C474.993363 547.614599 474.741593 548.710302 475.156449 549.411596 C477.383255 553.175024 479.495682 557.056982 482.159440 560.502294 C494.187394 576.059057 506.317337 591.538549 518.546952 606.937475 C529.525101 620.760778 540.767350 634.374487 551.732560 648.207861 C561.052201 659.965429 570.034623 671.990576 579.369034 683.736242 C586.980057 693.313452 594.994889 702.569067 602.644364 712.116491 C614.051835 726.354345 625.196366 740.803320 636.642045 755.009985 C644.837601 765.182104 653.457108 775.012121 661.675858 785.166113 C668.910477 794.104284 675.870682 803.265234 682.917069 812.354955 C689.659623 821.052648 696.307938 829.823766 703.088700 838.491369 C709.503983 846.691503 716.060502 854.780920 722.513138 862.952062 C729.845902 872.237829 737.052445 881.624304 744.455277 890.853552 C759.720047 909.884680 775.159012 928.776464 790.376420 947.845190 C805.446366 966.729101 820.340775 985.753515 835.288285 1004.735204 C837.250443 1007.227026 838.991410 1009.895727 841.002152 1012.345068 C841.624100 1013.102636 842.800492 1013.404760 843.723099 1013.915380 C844.183793 1012.939672 844.775467 1012.000585 845.062333 1010.976049 C845.278763 1010.203222 845.105179 1009.321386 845.105179 1008.488012 C845.105179 941.490087 845.124466 874.492040 845.062211 807.494116 C845.057938 802.965368 844.242753 798.440710 844.160111 793.907690 C844.076981 789.352392 846.534501 787.951269 850.767777 790.057409 C860.169510 794.735204 869.490189 799.576025 878.880326 804.277746 C881.631424 805.655309 884.608719 806.598974 887.300858 808.073095 C892.769608 811.067663 894.077469 814.681066 893.191483 821.069799 C892.707474 824.559728 893.105179 828.171972 893.105179 831.729040 C893.105179 832.062353 893.104081 832.395727 893.105423 832.729040 C893.438553 914.255163 893.724808 995.781591 894.123002 1077.307348 C894.358963 1125.616064 894.776932 1173.923803 895.099076 1222.232031 C895.141190 1228.541723 893.624466 1230.030126 887.356522 1230.033300 C870.480790 1230.041967 870.713089 1229.873266 861.110795 1216.653295 C851.751908 1203.768652 841.857010 1191.273046 832.184769 1178.616308 C822.412308 1165.828344 812.768998 1152.937841 802.799515 1140.305151 C793.931473 1129.068212 784.620560 1118.181982 775.643143 1107.029882 C768.224320 1097.813696 761.069901 1088.385107 753.682816 1079.143041 C746.458207 1070.104345 739.061478 1061.203588 731.786454 1052.204809 C716.448563 1033.232519 700.991898 1014.353369 685.867508 995.211889 C673.616532 979.707128 661.912919 963.770361 649.711503 948.225439 C641.955033 938.343359 633.612748 928.923132 625.751420 919.120703 C617.357377 908.654150 609.307755 897.911901 600.946610 887.418371 C592.335160 876.610693 583.462967 866.010900 574.828263 855.221472 C566.835770 845.234350 559.017045 835.108312 551.101883 825.059179 C544.169938 816.258337 537.194413 807.491857 530.266800 798.687597 C521.863846 788.008398 513.530716 777.273962 505.092667 766.622595 C498.219681 757.946630 491.184220 749.399328 484.316849 740.719091 C477.181107 731.699621 470.217179 722.544225 463.073807 713.530920 C456.195572 704.852087 449.124833 696.325720 442.246171 687.647192 C433.807389 677.000341 425.581681 666.183691 417.075577 655.591711 C409.209183 645.796362 401.073136 636.217993 393.094925 626.511877 C385.641800 617.444555 378.275223 608.305944 370.806290 599.251684 C362.598343 589.301550 354.257340 579.460912 346.084366 569.482397 C337.642899 559.176122 329.380753 548.723119 320.952713 538.405676 C313.002823 528.673437 304.903519 519.063268 296.935196 509.345922 C288.172440 498.659704 279.553360 487.855200 270.742203 477.209326 C263.422318 468.365209 255.811051 459.761694 248.515763 450.897680 C238.618851 438.872595 228.844742 426.744970 219.130753 414.571356 C214.867814 409.228979 210.972733 403.592413 206.684952 398.271337 C205.967789 397.381323 203.843949 396.805151 202.831131 397.217169 C201.925187 397.585638 201.123551 399.547338 201.189591 400.756109 C201.703385 410.154699 203.014054 419.540838 203.020035 428.931494 C203.135087 609.592687 203.084855 790.254003 203.148209 970.915258 C203.152726 983.776953 203.627945 996.644262 204.148209 1009.498266 C204.609574 1020.896703 205.085099 1032.315038 206.198624 1043.661352 C207.459733 1056.510351 209.372330 1069.298071 211.124833 1082.095556 C212.698136 1093.584326 214.041703 1105.125341 216.197770 1116.508520 C219.471695 1133.793798 223.201371 1150.989721 234.071427 1165.593603 C239.752396 1173.225805 246.730729 1179.285742 254.898575 1184.019750 C268.789750 1192.070654 283.917923 1194.915624 299.831620 1195.132543 C310.562211 1195.278661 321.293473 1196.205419 331.998185 1197.097631 C337.834427 1197.583959 340.336564 1200.657568 340.144303 1205.568945 C339.961930 1210.228246 340.307511 1214.911840 340.042496 1219.563329 C339.821976 1223.434545 338.267350 1226.307348 333.519486 1226.079565 C329.029923 1225.864111 324.519547 1225.938207 320.022538 1226.052099 C309.159501 1226.327245 298.297745 1227.018530 287.437455 1226.981420 C220.410477 1226.751684 153.384171 1226.326269 86.357285 1226.083227 C77.773087 1226.052099 69.184403 1227.020849 60.601334 1226.966650 C42.733658 1226.853979 24.869034 1226.194433 7.001725 1226.124487 C0.532334 1226.099096 2.148026 1220.825048 1.348038 1217.815771 C0.340653 1214.026464 0.820298 1209.740453 1.183976 1205.716161 C1.560379 1201.550634 3.572007 1199.068456 8.476181 1198.926733 C20.042618 1198.592382 31.643601 1198.170263 43.138901 1196.932226 C64.929612 1194.585546 85.693619 1188.808203 103.937516 1176.016577 C115.150040 1168.155004 122.747574 1157.462011 127.044510 1144.575903 C131.543290 1131.084570 135.978226 1117.543920 139.634110 1103.809911 C141.901139 1095.293310 142.768082 1086.392187 144.080155 1077.636205 C145.847489 1065.842016 147.511124 1054.030981 149.066971 1042.207128 C149.636857 1037.876440 149.839859 1033.492407 150.089554 1029.125829 C150.481766 1022.267431 150.827958 1015.405493 151.091752 1008.541113 C151.477005 998.514745 151.774735 988.485082 152.104386 978.456640 C152.441361 968.204687 153.056534 957.952490 153.061905 947.700292 C153.128312 821.370703 153.089371 695.041174 153.147782 568.711584 C153.150956 561.792578 154.035050 554.873632 154.031998 547.954931 C154.028824 540.869177 153.315018 533.786291 153.168351 526.696874 C153.112748 524.009680 154.052750 521.308691 154.061234 518.612524 C154.136796 494.613500 154.334244 470.610998 154.017411 446.615942 C153.833939 432.719457 152.952469 418.822790 152.047562 404.948217 C151.334305 394.010717 150.840958 382.976019 148.927384 372.219732 C146.263566 357.246435 144.662613 341.971868 137.218522 328.099310 C129.923172 314.503790 119.325882 305.113073 104.943253 300.102636 C93.708664 296.188848 82.390732 292.358709 70.859604 289.501013 C61.663041 287.221838 52.129715 286.035345 42.672379 285.142126 C30.824936 284.023199 18.899186 283.750219 7.013840 283.006719 C2.721756 282.738226 0.450699 279.677892 0.139115 273.802862 C-0.046005 270.312780 -0.046432 266.796850 0.138199 263.306707 C0.475022 256.940313 2.586564 255.033300 8.883316 255.033300 C42.882309 255.033300 76.881791 254.923528 110.880082 255.077825 C128.909256 255.159643 146.935441 255.841039 164.964921 255.967993 C172.828751 256.023382 180.695206 255.176306 188.564713 255.076635 C201.286149 254.915533 214.011429 254.978216 226.734452 255.054205 C234.227860 255.099005 238.178116 260.375463 242.123795 265.713293 C252.602921 279.890020 263.081376 294.068914 273.732743 308.116094 C284.814530 322.731085 295.962723 337.300146 307.344071 351.681829 C314.259354 360.420171 321.775712 368.680212 328.829911 377.312139 C335.715470 385.737798 342.313614 394.397680 349.117508 402.890905 C355.746964 411.166479 362.418900 419.410253 369.236832 427.529760 C370.092667 428.548925 371.951249 428.725988 373.345231 429.293249 C373.262650 427.704015 373.763260 425.733190 373.010331 424.582678 C360.872391 406.035619 353.108963 385.469000 346.317704 364.639044 C341.550431 350.017126 338.040116 334.879888 335.286515 319.733129 C331.676590 299.875555 330.963395 279.626074 332.303605 259.523840 C333.464982 242.104406 336.056107 224.705175 342.172562 208.179327 C347.516373 193.740881 352.697953 179.160772 359.348587 165.314413 C364.322098 154.959982 371.726761 145.798193 377.679703 135.883672 C387.480729 119.560156 400.062272 105.504217 413.537980 92.310110 C424.829545 81.254492 436.994706 71.164449 449.661149 61.565206 C462.998246 51.457739 477.131669 42.965948 492.045975 35.731115 C509.948807 27.046575 528.265091 19.113455 547.604691 14.225340 C558.891617 11.372564 570.503800 9.542761 582.077591 8.150724 C599.666092 6.035284 617.339982 4.603269 634.994828 3.080389 C642.165360 2.461866 649.377640 2.248716 656.576493 2.057562 C672.102616 1.645300 687.632157 1.368032 703.160355 1.032911 C718.521805 0.701383 733.883866 0.394140 749.244462 0.024923 C762.448441 -0.292444 775.091874 2.460905 787.748734 6.016058 C803.147171 10.341314 815.096390 20.208807 827.676346 29.145406 C836.847123 35.660208 845.976883 42.244360 854.907425 49.081777 C861.931107 54.459265 868.552201 60.359197 875.477860 65.869131 C886.110428 74.328344 897.037552 82.427480 907.481278 91.110494 C914.704056 97.115423 919.355179 105.063635 921.051835 114.390539 C922.681107 123.346655 923.229447 132.365698 920.384842 141.253210 C919.593949 143.724432 920.452103 144.769994 923.081620 145.084631 C930.185135 145.934713 937.293168 146.837896 944.336869 148.076406 C956.730423 150.255575 969.528275 151.356527 981.346634 155.322912 C1003.518021 162.763845 1025.009720 172.204229 1046.987015 180.259527 C1058.444657 184.459020 1070.334916 187.477697 1082.028153 191.034796 C1085.283524 192.024999 1088.550492 192.982153 1091.773880 194.068182 C1092.611283 194.350286 1093.304154 195.061132 1094.063431 195.575048 C1093.098099 196.061132 1092.117386 196.991949 1091.170121 196.958929 C1086.136185 196.783636 1081.095658 196.511144 1076.086747 195.989874 C1071.674759 195.530737 1067.282181 194.805883 1062.915604 194.008795 C1056.117753 192.767980 1049.361039 191.301855 1042.558915 190.087255 C1041.177933 189.840643 1039.673417 190.286169 1038.225785 190.412634 C1038.852494 191.786382 1039.214188 193.381048 1040.146927 194.499548 C1049.152543 205.297674 1058.298295 215.979284 1067.258988 226.814031 C1068.137528 227.876348 1068.047562 229.739752 1068.407181 231.231359 C1067.013260 230.705389 1065.230057 230.561346 1064.283158 229.596655 C1048.221390 213.233099 1029.614457 200.079931 1010.762284 187.284582 C997.785111 178.476782 983.442582 172.731420 967.926835 170.019018 C956.909501 168.092993 945.966629 165.654974 934.894730 164.150930 C925.749344 162.908605 916.442704 162.907110 907.245316 161.979772 C896.275101 160.873647 885.357377 159.255285 874.394486 158.065206 C863.825028 156.917806 853.228837 156.011602 842.637650 155.075964 C841.820878 155.003820 840.950638 155.537618 840.105179 155.789800 C840.852494 156.451635 841.511429 157.529470 842.361039 157.709905 C849.581986 159.243551 856.831376 160.645849 864.084183 162.025747 C874.749833 164.054998 885.454789 165.891226 896.081376 168.105566 C900.144486 168.952245 901.050248 172.872198 897.922196 175.647009 C889.767655 182.880590 881.096634 189.306158 870.344437 192.321172 C861.762528 194.727606 853.102128 193.085455 844.515580 192.791082 C838.058060 192.569677 831.650101 190.978674 825.213822 190.038824 C815.936234 188.684026 806.657792 187.332952 797.370926 186.043890 C789.792557 184.991979 782.166459 184.241644 774.625077 182.978033 C766.108841 181.551092 757.619706 179.894598 749.198075 177.987402 C736.734330 175.164800 724.328934 172.079717 711.919999 169.020452 C699.166214 165.876180 689.017045 158.259832 679.382645 149.807043 C668.440018 140.206457 657.377030 130.697057 643.021683 126.565115 C637.153031 124.875936 631.035843 123.882528 624.962967 123.119055 C619.151200 122.388387 613.211441 121.766943 607.395646 122.143347 C588.332962 123.377157 569.635025 126.422247 551.837418 133.978079 C529.722672 143.366735 510.769669 157.062841 494.808121 174.892492 C482.142838 189.039953 472.753922 205.303808 466.691727 223.213629 C464.042862 231.039343 463.197403 239.556951 462.216263 247.841284 C461.351761 255.140081 461.343216 262.548742 461.125443 269.913854 C460.696610 284.418524 463.878129 298.397039 466.882523 312.489233 C470.662247 330.218206 476.881119 346.996191 485.241837 362.897192 C492.767594 377.210241 500.591446 391.497045 511.938004 403.347997 C528.518509 420.665624 544.641861 438.466467 561.949479 455.027380 C574.845047 467.366674 589.244278 478.145544 603.086258 489.482153 C624.914994 507.360021 649.210526 521.570410 673.346756 535.945226 C691.998246 547.053442 711.014603 557.565038 730.069657 567.974279 C747.164017 577.312536 764.522171 586.168676 781.782914 595.201086 C793.559525 601.363561 805.321244 607.557226 817.175004 613.568701 C833.420121 621.807104 849.699662 629.980688 866.049881 638.008276 C884.601395 647.116674 903.350663 655.826818 921.818314 665.099951 C936.053177 672.247778 949.995560 679.978979 964.049271 687.486120 C977.016190 694.412634 990.117875 701.107641 1002.865189 708.418859 C1015.167435 715.474767 1027.277298 722.906713 1039.136185 730.684789 C1053.217972 739.920995 1067.307206 749.219518 1080.731888 759.366064 C1099.224686 773.343359 1116.376175 789.038854 1131.666459 806.423986 C1144.193680 820.667516 1155.643754 835.936071 1166.669877 851.393286 C1173.491532 860.955969 1178.610550 871.731054 1184.522904 881.945043 C1194.231888 898.718115 1202.066727 916.347692 1207.385575 934.959203 C1210.854935 947.098852 1213.255204 959.545141 1216.101151 971.861791 C1221.579545 995.570043 1221.807450 1019.698339 1220.939286 1043.781469 C1220.334916 1060.547704 1218.670731 1077.234228 1215.411332 1093.860693 C1212.128373 1110.608007 1208.691971 1127.235327 1202.996048 1143.289770 C1199.759476 1152.412939 1195.923295 1161.404882 1191.470780 1169.996679 C1184.057206 1184.301611 1176.436478 1198.552099 1167.923661 1212.215429 C1162.458695 1220.986913 1155.326004 1228.735937 1148.773636 1236.807592 C1144.581742 1241.971411 1140.447098 1247.268530 1135.646805 1251.832861 C1126.307694 1260.713232 1116.872635 1269.563574 1106.813675 1277.595190 C1097.216019 1285.258520 1086.949173 1292.134252 1076.634842 1298.830053 C1070.832718 1302.596655 1064.452713 1305.546606 1058.134842 1308.430517 C1043.844193 1314.953954 1029.797806 1322.305151 1014.965775 1327.269140 C999.502152 1332.444433 983.324662 1335.668188 967.287796 1338.892309 C953.921463 1341.579565 940.342850 1343.336279 926.790848 1344.932836 C916.794144 1346.110693 906.689652 1346.377783 896.631791 1347.028784 C891.104935 1347.386694 885.552933 1348.190161 880.050858 1347.941137 C863.620682 1347.197485 847.118851 1346.787084 830.815506 1344.827856 C813.448929 1342.740820 796.236283 1339.248022 779.033280 1335.966039 C765.046463 1333.297460 751.220414 1329.788305 737.236405 1327.102880 C723.431107 1324.451635 709.546586 1322.167089 695.641190 1320.096777 C684.573929 1318.449194 673.451371 1316.983862 662.300248 1316.141577 C651.309525 1315.311498 640.210282 1314.605078 629.233109 1315.204565 C610.905472 1316.205419 592.823685 1319.172460 575.117569 1324.403906 C562.482560 1328.136938 550.374039 1332.964941 540.108780 1341.174047 C532.908402 1346.932104 526.416703 1353.699926 520.260636 1360.598608 C515.887589 1365.499243 511.756913 1370.982763 509.042801 1376.905126 C505.591263 1384.436498 502.664994 1392.512670 501.372391 1400.649511 C499.887772 1409.994970 499.781754 1419.695287 500.240189 1429.185400 C501.232438 1449.726660 507.957474 1468.310522 522.210099 1483.495214 C530.226517 1492.035742 538.236954 1500.905370 547.615738 1507.757299 C557.941239 1515.300756 569.646683 1521.063452 581.091385 1526.938574 C594.519425 1533.832128 608.993790 1538.224218 623.767716 1540.893163 C649.876420 1545.609594 675.265458 1552.924780 699.948319 1562.278661 C718.123978 1569.166479 735.641678 1577.610327 750.724930 1590.777929 C764.488114 1602.793188 777.064042 1615.470556 784.599808 1632.205541 C790.282181 1644.824926 795.117142 1657.895849 796.061112 1671.937109 C796.633378 1680.449438 797.591752 1689.055029 796.930253 1697.505468 C795.652543 1713.829565 791.123368 1729.510839 782.112015 1743.269872 C775.232254 1753.774389 767.757767 1764.142431 759.061600 1773.133642 C750.153275 1782.344335 739.486893 1789.868749 729.432328 1797.934545 C728.443924 1798.727392 726.351395 1798.144018 724.771317 1798.199316 C724.882523 1796.762914 724.527543 1795.056494 725.178055 1793.931860 C731.097977 1783.697241 737.265091 1773.606176 743.220536 1763.391699 C752.259842 1747.888159 759.944291 1731.808935 762.042801 1713.711279 C763.069046 1704.862646 764.251664 1695.907812 763.923295 1687.054418 C763.366410 1672.043310 759.087235 1658.093115 751.603959 1644.696264 C739.830765 1623.618871 721.403031 1612.209936 699.775467 1603.869848 C685.105790 1598.212866 669.950760 1595.139013 654.702836 1591.945898 C638.059159 1588.460424 621.559159 1584.289770 604.994217 1580.427587 C602.871537 1579.932714 600.735184 1579.496679 598.355179 1578.783300 M820.105179 109.533300 C828.418290 107.950796 830.648026 104.799490 825.968094 97.134374 C822.831986 91.997976 819.133378 86.628958 814.367875 83.192632 C806.314286 77.385366 797.299515 73.245199 786.749466 77.952612 C781.281571 80.392462 776.699051 85.570013 777.105057 90.216924 C777.772171 97.851812 784.104935 105.463247 791.467728 108.074713 C800.705155 111.351110 810.219071 109.533270 820.105179 109.533300 z"/><path class="selected"  fill="#000000" opacity="1.000000" stroke="none" 
 	d="
M980.105179 255.033300 C1006.604935 255.033300 1032.605912 255.175512 1058.603226 254.918951 C1064.107621 254.864630 1067.704667 257.656805 1067.182816 263.589422 C1066.789994 268.054815 1067.105179 272.582494 1067.105179 277.082433 C1067.105179 284.343878 1065.806839 285.472021 1058.509598 286.076910 C1044.216385 287.261724 1029.947220 288.734258 1015.662064 290.020056 C1007.444901 290.759680 999.206864 291.274359 990.993729 292.052923 C974.854691 293.582800 958.735672 295.332037 944.057450 303.049688 C931.916947 309.433019 923.835770 319.404089 917.825272 331.644842 C910.539872 346.482183 907.755814 362.408972 905.190262 378.397772 C902.792801 393.338751 900.938187 408.373846 899.161087 423.404943 C897.874344 434.290075 896.870682 445.221166 896.163651 456.159094 C895.255936 470.200598 894.417679 484.263281 894.176590 498.327673 C893.618607 530.852087 893.413285 563.382726 893.119950 595.911352 C893.026200 606.300939 893.094071 616.692053 893.111405 627.082494 C893.117142 630.438268 892.461747 632.050573 888.559525 630.097448 C875.733475 623.677648 862.796463 617.477087 849.839554 611.323889 C846.320389 609.652746 844.986039 607.335668 845.016068 603.339453 C845.196000 579.507726 845.235306 555.673010 845.068070 531.841100 C844.905472 508.644933 844.830399 485.436010 843.955033 462.261511 C843.446000 448.782812 841.544510 435.349096 840.071610 421.916815 C838.905716 411.284185 837.836380 400.615057 835.997391 390.089147 C834.006669 378.694372 831.073197 367.467474 828.733841 356.129583 C826.160355 343.657018 820.966507 332.324529 814.204178 321.644476 C807.715653 311.396703 799.244217 303.142400 787.702591 299.163641 C774.542679 294.626959 761.153275 290.625982 747.642289 287.287481 C739.636063 285.309210 731.228470 284.682592 722.955643 284.117315 C708.752640 283.146826 694.512284 282.732824 680.291092 282.015356 C675.357865 281.766485 673.529252 278.282659 673.183671 274.076055 C672.830033 269.771826 672.845780 265.395910 673.178055 261.088232 C673.511185 256.770086 675.891068 254.934698 680.606156 254.940496 C780.272416 255.063085 879.938797 255.033300 980.105179 255.033300 z"/><path class="selected"  fill="#000000" opacity="1.000000" stroke="none" 
 	d="
M92.355179 1567.283300 C87.020890 1570.950903 82.022324 1574.509619 76.791855 1577.686620 C75.489640 1578.477392 73.438126 1578.034765 71.731064 1578.159033 C71.855790 1576.383642 71.470566 1574.355566 72.201432 1572.880468 C74.334702 1568.575414 76.784806 1564.410131 79.345658 1560.337988 C84.178696 1552.652685 89.303086 1545.149267 94.075425 1537.427709 C101.280900 1525.769018 107.926102 1513.745580 115.541703 1502.367162 C119.033097 1497.150854 114.498490 1496.801489 112.446274 1496.200781 C104.226883 1493.795263 95.836960 1491.954809 87.477097 1490.050268 C72.085282 1486.543920 56.659012 1483.188574 41.272110 1479.661108 C37.045609 1478.692114 32.842209 1477.520727 28.760453 1476.070165 C27.032883 1475.456396 25.646561 1473.882299 24.105179 1472.744604 C25.884812 1471.507543 27.513840 1469.566381 29.468644 1469.148290 C41.452805 1466.585058 53.525864 1464.441747 65.540299 1462.014868 C81.674363 1458.755834 97.780961 1455.361059 113.901932 1452.036962 C118.221451 1451.146337 119.313187 1448.167944 116.873063 1444.280615 C102.262589 1421.005102 87.622330 1397.747167 73.224106 1374.340673 C71.965317 1372.294286 72.380387 1369.218237 72.018021 1366.620458 C74.627457 1367.171728 77.663987 1367.050634 79.772873 1368.390112 C89.187912 1374.369970 98.187058 1381.006323 107.620469 1386.955053 C121.060807 1395.430273 134.706742 1403.583593 148.359086 1411.716161 C152.406510 1414.127050 154.031449 1413.092138 155.117264 1408.371557 C159.421341 1389.660009 163.906449 1370.988989 168.047135 1352.241552 C170.050065 1343.172949 171.296769 1333.938452 173.227005 1324.851660 C173.604508 1323.074316 175.553055 1321.630834 176.776993 1320.033300 C178.133927 1321.447607 180.319962 1322.661230 180.718583 1324.307470 C184.357804 1339.337621 187.701920 1354.439672 191.100419 1369.527807 C194.122879 1382.946508 197.004593 1396.398290 200.188370 1409.778417 C200.839371 1412.514013 202.655961 1414.110815 205.949357 1412.080541 C214.290360 1406.938207 222.801651 1402.072973 231.200211 1397.022680 C240.547257 1391.402197 249.906083 1385.797094 259.143754 1380.000341 C265.654435 1375.914648 271.888810 1371.385839 278.437211 1367.365576 C279.936539 1366.445043 282.219925 1366.801611 284.142472 1366.570532 C283.959366 1368.395483 284.355240 1370.568334 283.500992 1371.989965 C277.070572 1382.691137 270.416764 1393.258764 263.788834 1403.840429 C255.249039 1417.474584 246.646439 1431.069311 238.122086 1444.713110 C236.216935 1447.762426 237.863480 1451.097753 241.918229 1451.997167 C257.350785 1455.420141 272.826371 1458.648168 288.263871 1462.049047 C301.537735 1464.973242 314.795914 1467.973486 328.019242 1471.115820 C329.519486 1471.472265 330.749711 1472.965429 332.105179 1473.931371 C330.755509 1474.815161 329.515458 1476.157202 328.038773 1476.510473 C315.736161 1479.454443 303.382706 1482.185034 291.059403 1485.043798 C282.097184 1487.122900 273.172196 1489.363989 264.202713 1491.410253 C257.028397 1493.047216 249.811966 1494.499731 242.614090 1496.033300 C238.008011 1497.014501 236.809403 1499.205908 239.131730 1503.058569 C248.623551 1518.805273 258.189042 1534.507787 267.782670 1550.192846 C272.831315 1558.447241 278.075516 1566.583471 283.011124 1574.903661 C283.695878 1576.057836 283.111771 1577.964941 283.115006 1579.523412 C281.741288 1579.156225 280.188004 1579.085302 279.020340 1578.377905 C256.894547 1564.974462 234.812027 1551.499609 212.727066 1538.028906 C209.927994 1536.321630 207.152970 1534.573828 204.389908 1532.808691 C201.875687 1531.202490 200.623002 1531.978124 200.083512 1534.803076 C198.817826 1541.430273 197.515946 1548.052587 196.088395 1554.646459 C193.408524 1567.024755 190.707901 1579.399511 187.867630 1591.741674 C185.385880 1602.526098 182.718461 1613.267797 180.076310 1624.014501 C179.824112 1625.040258 179.167801 1625.966650 178.699234 1626.939184 C177.658829 1626.294775 176.021012 1625.873632 175.682206 1624.967138 C174.276322 1621.206152 173.081192 1617.342138 172.140030 1613.436254 C169.543656 1602.661108 167.102982 1591.848364 164.620987 1581.045751 C161.438797 1567.195410 158.150467 1553.367529 155.162308 1539.475195 C153.821671 1533.242285 151.601822 1532.203222 146.047013 1535.550268 C128.718766 1545.991430 111.322373 1556.319433 93.942093 1566.674047 C93.560532 1566.901342 93.053635 1566.918310 92.355179 1567.283300 z"/></svg>