<?xml version="1.0" encoding="UTF-8" standalone="no"?>
<!DOCTYPE svg PUBLIC "-//W3C//DTD SVG 1.1//EN" "http://www.w3.org/Graphics/SVG/1.1/DTD/svg11.dtd">
<!-- Created with Vectornator (http://vectornator.io/) -->
<svg height="100%" stroke-miterlimit="10" style="fill-rule:nonzero;clip-rule:evenodd;stroke-linecap:round;stroke-linejoin:round;" version="1.1" viewBox="0 0 977.057 977.057" width="100%" xml:space="preserve" xmlns="http://www.w3.org/2000/svg" xmlns:vectornator="http://vectornator.io" xmlns:xlink="http://www.w3.org/1999/xlink">
<defs/>
<clipPath id="ArtboardFrame">
<rect height="977.057" width="977.057" x="0" y="0"/>
</clipPath>
<g clip-path="url(#ArtboardFrame)" id="Untitled" vectornator:layerName="Untitled">
<path d="M481.843 857.763C472.441 854.639 463.062 851.956 453.941 848.577C444.627 845.127 436.195 839.829 428.25 833.93C421.077 828.603 414.742 822.318 409.627 814.897C403.873 806.55 399.387 797.638 397.519 787.59C396.653 782.936 395.74 778.256 395.404 773.548C395.04 768.441 394.895 763.243 395.435 758.168C396.038 752.504 397.028 746.779 398.722 741.354C402.194 730.238 408.008 720.323 415.497 711.358C423.327 701.988 432.77 694.641 443.159 688.373C450.609 683.877 458.406 680.187 466.847 678.015C473.574 676.285 480.296 674.385 487.137 673.281C494.549 672.086 502.084 671.582 509.585 671.047C515.379 670.634 521.212 670.343 527.011 670.53C535.035 670.787 543.059 671.373 551.053 672.14C557.855 672.792 564.629 673.802 571.388 674.837C576.2 675.574 580.959 676.652 585.755 677.501C587.469 677.805 589.221 677.909 590.96 678.059C595.336 678.437 599.718 679.129 604.09 679.076C611.731 678.983 619.368 678.478 627.001 678.044C631.476 677.79 635.965 677.534 640.399 676.926C645.396 676.241 650.399 675.405 655.29 674.195C663.226 672.232 671.247 670.39 678.906 667.6C685.879 665.059 692.591 661.638 699.093 658.019C704.519 654.999 709.753 651.473 714.56 647.545C719.547 643.469 723.939 638.661 728.552 634.133C734.521 628.274 738.273 620.925 741.508 613.424C744.321 606.901 746.404 600.033 748.382 593.194C749.426 589.58 749.774 585.718 750.054 581.939C750.578 574.857 751.319 567.736 751.047 560.666C750.779 553.683 749.768 546.663 748.363 539.806C746.592 531.155 743.231 522.971 739.225 515.09C734.555 505.902 729.099 497.267 721.594 490.054C719.154 487.708 717.078 484.984 714.637 482.639C704.793 473.179 694.472 464.299 682.922 456.931C674.321 451.444 665.859 445.731 657.159 440.405C649.176 435.517 640.988 430.958 632.833 426.356C626.678 422.883 620.474 419.494 614.219 416.208C603.069 410.351 591.901 404.527 580.672 398.826C569.681 393.246 558.569 387.905 547.576 382.331C538.439 377.697 529.296 373.058 520.338 368.092C509.491 362.078 498.779 355.813 488.116 349.477C479.448 344.325 470.761 339.17 462.407 333.534C454.059 327.901 445.966 321.859 438.041 315.639C432.077 310.958 426.562 305.705 420.833 300.724C419.446 299.518 418.046 298.318 416.56 297.244C416.138 296.939 415.389 297.086 414.789 297.026C414.82 297.522 414.683 298.118 414.908 298.499C416.118 300.543 417.266 302.652 418.713 304.524C425.248 312.976 431.838 321.387 438.483 329.753C444.447 337.263 450.555 344.66 456.513 352.175C461.576 358.563 466.456 365.097 471.528 371.478C475.663 376.681 480.017 381.71 484.173 386.897C490.371 394.633 496.426 402.483 502.644 410.202C507.097 415.728 511.78 421.069 516.245 426.586C520.176 431.442 523.958 436.419 527.786 441.357C531.449 446.083 535.061 450.848 538.745 455.557C542.231 460.013 545.793 464.408 549.299 468.847C553.283 473.892 557.198 478.992 561.22 484.006C569.513 494.346 577.901 504.61 586.169 514.97C594.357 525.23 602.449 535.566 610.57 545.879C611.636 547.233 612.582 548.683 613.674 550.013C614.012 550.425 614.652 550.589 615.153 550.866C615.403 550.336 615.725 549.826 615.88 549.269C615.998 548.85 615.904 548.37 615.904 547.918C615.904 511.517 615.914 475.117 615.88 438.716C615.878 436.256 615.435 433.798 615.39 431.335C615.345 428.86 616.68 428.099 618.98 429.243C624.088 431.784 629.152 434.415 634.254 436.969C635.749 437.717 637.366 438.23 638.829 439.031C641.8 440.658 642.511 442.621 642.029 446.092C641.766 447.988 641.982 449.951 641.982 451.883C641.982 452.065 641.982 452.246 641.983 452.427C642.163 496.72 642.319 541.014 642.535 585.308C642.664 611.554 642.891 637.8 643.066 664.046C643.089 667.474 642.265 668.283 638.859 668.285C629.69 668.289 629.817 668.198 624.6 661.015C619.515 654.015 614.139 647.226 608.884 640.349C603.575 633.402 598.335 626.398 592.919 619.535C588.101 613.43 583.042 607.515 578.165 601.456C574.134 596.449 570.247 591.326 566.233 586.305C562.308 581.394 558.289 576.558 554.337 571.669C546.004 561.362 537.606 551.104 529.389 540.705C522.733 532.281 516.374 523.622 509.745 515.177C505.531 509.808 500.999 504.69 496.727 499.364C492.167 493.677 487.793 487.841 483.251 482.14C478.572 476.268 473.752 470.509 469.061 464.647C464.718 459.221 460.47 453.719 456.17 448.26C452.404 443.478 448.614 438.715 444.85 433.932C440.285 428.13 435.757 422.298 431.173 416.511C427.439 411.797 423.616 407.153 419.885 402.437C416.008 397.537 412.225 392.563 408.344 387.666C404.607 382.95 400.765 378.318 397.028 373.603C392.443 367.818 387.974 361.942 383.353 356.187C379.079 350.865 374.658 345.661 370.324 340.388C366.274 335.461 362.272 330.496 358.214 325.577C353.755 320.171 349.223 314.825 344.783 309.403C340.196 303.804 335.707 298.125 331.128 292.519C326.809 287.232 322.409 282.01 318.08 276.731C313.319 270.925 308.636 265.055 303.849 259.271C299.872 254.466 295.737 249.791 291.773 244.975C286.396 238.442 281.086 231.853 275.808 225.239C273.492 222.337 271.376 219.274 269.046 216.383C268.656 215.9 267.503 215.587 266.952 215.811C266.46 216.011 266.025 217.077 266.06 217.733C266.34 222.84 267.052 227.939 267.055 233.041C267.117 331.195 267.09 429.35 267.125 527.504C267.127 534.492 267.385 541.483 267.668 548.467C267.918 554.659 268.177 560.863 268.782 567.028C269.467 574.009 270.506 580.956 271.458 587.909C272.313 594.151 273.043 600.421 274.214 606.606C275.993 615.997 278.02 625.34 283.925 633.274C287.012 637.421 290.803 640.713 295.241 643.285C302.788 647.659 311.007 649.205 319.653 649.323C325.483 649.402 331.314 649.906 337.13 650.39C340.3 650.655 341.66 652.325 341.555 654.993C341.456 657.524 341.644 660.069 341.5 662.596C341.38 664.699 340.536 666.26 337.956 666.137C335.517 666.019 333.066 666.06 330.623 666.122C324.721 666.271 318.82 666.647 312.919 666.627C276.503 666.502 240.087 666.271 203.671 666.139C199.007 666.122 194.341 666.648 189.678 666.618C179.97 666.557 170.264 666.199 160.557 666.161C157.042 666.147 157.92 663.282 157.485 661.647C156.938 659.588 157.199 657.259 157.396 655.073C157.601 652.81 158.694 651.461 161.358 651.384C167.642 651.203 173.945 650.973 180.19 650.301C192.03 649.026 203.311 645.887 213.223 638.937C219.315 634.666 223.442 628.856 225.777 621.855C228.221 614.525 230.631 607.168 232.617 599.707C233.849 595.08 234.32 590.244 235.032 585.486C235.993 579.078 236.897 572.661 237.742 566.238C238.051 563.885 238.162 561.503 238.297 559.13C238.511 555.404 238.699 551.676 238.842 547.947C239.051 542.499 239.213 537.05 239.392 531.601C239.575 526.032 239.909 520.461 239.912 514.891C239.948 446.256 239.927 377.62 239.959 308.984C239.961 305.225 240.441 301.466 240.439 297.707C240.438 293.858 240.05 290.009 239.97 286.158C239.94 284.698 240.451 283.23 240.455 281.765C240.496 268.727 240.604 255.686 240.431 242.649C240.332 235.099 239.853 227.549 239.361 220.011C238.974 214.068 238.706 208.073 237.666 202.229C236.219 194.094 235.349 185.795 231.305 178.258C227.341 170.872 221.583 165.77 213.769 163.048C207.665 160.921 201.516 158.84 195.251 157.288C190.255 156.049 185.075 155.405 179.937 154.919C173.5 154.312 167.021 154.163 160.564 153.759C158.232 153.613 156.998 151.951 156.828 148.759C156.728 146.863 156.728 144.952 156.828 143.056C157.011 139.597 158.158 138.561 161.579 138.561C180.051 138.561 198.523 138.502 216.995 138.585C226.79 138.63 236.584 139 246.379 139.069C250.652 139.099 254.926 138.639 259.201 138.585C266.113 138.497 273.027 138.531 279.939 138.573C284.01 138.597 286.156 141.464 288.3 144.364C293.994 152.066 299.687 159.769 305.474 167.401C311.494 175.342 317.551 183.257 323.735 191.071C327.492 195.818 331.576 200.306 335.408 204.996C339.149 209.574 342.734 214.279 346.431 218.893C350.032 223.389 353.657 227.868 357.361 232.28C357.826 232.833 358.836 232.929 359.594 233.238C359.549 232.374 359.821 231.303 359.412 230.678C352.817 220.602 348.599 209.428 344.909 198.111C342.319 190.166 340.412 181.942 338.916 173.713C336.955 162.924 336.567 151.923 337.295 141.001C337.926 131.537 339.334 122.084 342.657 113.105C345.561 105.261 348.376 97.3391 351.989 89.8163C354.691 84.1907 358.714 79.213 361.949 73.8264C367.274 64.9578 374.109 57.3211 381.431 50.1526C387.565 44.1461 394.175 38.6641 401.057 33.4488C408.303 27.9573 415.981 23.3437 424.084 19.4129C433.811 14.6946 443.763 10.3845 454.27 7.72871C460.402 6.17878 466.711 5.18464 472.999 4.42834C482.555 3.27901 492.157 2.50098 501.749 1.67359C505.645 1.33755 509.564 1.22174 513.475 1.11788C521.91 0.8939 530.348 0.743259 538.784 0.561186C547.13 0.381065 555.476 0.214138 563.822 0.0135397C570.996-0.158888 577.865 1.33702 584.742 3.26856C593.108 5.6185 599.6 10.9796 606.434 15.8349C611.417 19.3744 616.377 22.9516 621.229 26.6664C625.045 29.5881 628.643 32.7935 632.405 35.7871C638.182 40.383 644.119 44.7834 649.793 49.5009C653.717 52.7634 656.244 57.0817 657.166 62.1491C658.051 67.015 658.349 71.9151 656.804 76.7437C656.374 78.0864 656.84 78.6544 658.269 78.8254C662.128 79.2872 665.99 79.7779 669.817 80.4508C676.55 81.6348 683.504 82.2329 689.924 84.3879C701.97 88.4306 713.647 93.5596 725.587 97.9361C731.812 100.218 738.272 101.858 744.625 103.79C746.394 104.328 748.169 104.848 749.92 105.438C750.375 105.592 750.752 105.978 751.164 106.257C750.64 106.521 750.107 107.027 749.592 107.009C746.857 106.914 744.119 106.766 741.397 106.482C739 106.233 736.614 105.839 734.241 105.406C730.548 104.732 726.877 103.935 723.181 103.276C722.431 103.142 721.614 103.384 720.827 103.452C721.168 104.199 721.364 105.065 721.871 105.673C726.764 111.539 731.733 117.343 736.601 123.229C737.079 123.807 737.03 124.819 737.225 125.629C736.468 125.344 735.499 125.265 734.984 124.741C726.258 115.851 716.149 108.705 705.906 101.753C698.856 96.9675 691.063 93.846 682.633 92.3724C676.648 91.326 670.702 90.0014 664.687 89.1842C659.718 88.5092 654.662 88.5084 649.665 88.0046C643.705 87.4036 637.773 86.5244 631.817 85.8778C626.074 85.2544 620.317 84.7621 614.563 84.2537C614.119 84.2145 613.646 84.5045 613.187 84.6416C613.593 85.0011 613.951 85.5867 614.413 85.6848C618.336 86.518 622.275 87.2799 626.215 88.0296C632.01 89.1321 637.826 90.1297 643.599 91.3328C645.807 91.7928 646.299 93.9225 644.599 95.4301C640.169 99.3601 635.458 102.851 629.616 104.489C624.954 105.797 620.248 104.905 615.583 104.745C612.075 104.624 608.593 103.76 605.097 103.249C600.056 102.513 595.015 101.779 589.969 101.079C585.852 100.507 581.709 100.1 577.611 99.4131C572.984 98.6378 568.372 97.7378 563.797 96.7016C557.025 95.1681 550.285 93.492 543.543 91.8298C536.614 90.1215 531.1 85.9835 525.866 81.3911C519.92 76.175 513.91 71.0085 506.11 68.7636C502.922 67.8459 499.598 67.3061 496.299 66.8913C493.141 66.4944 489.914 66.1567 486.755 66.3612C476.398 67.0316 466.239 68.686 456.57 72.7911C444.554 77.892 434.257 85.3332 425.585 95.0202C418.704 102.707 413.603 111.543 410.309 121.273C408.87 125.525 408.411 130.153 407.878 134.654C407.408 138.619 407.403 142.644 407.285 146.646C407.052 154.526 408.781 162.121 410.413 169.777C412.467 179.41 415.845 188.525 420.388 197.164C424.477 204.941 428.727 212.703 434.892 219.141C443.9 228.55 452.66 238.222 462.063 247.219C469.07 253.923 476.893 259.779 484.413 265.939C496.273 275.652 509.473 283.372 522.586 291.182C532.72 297.217 543.051 302.928 553.404 308.584C562.692 313.657 572.122 318.469 581.5 323.376C587.899 326.725 594.289 330.09 600.729 333.356C609.555 337.832 618.4 342.272 627.283 346.634C637.362 351.582 647.549 356.315 657.582 361.353C665.316 365.236 672.891 369.437 680.527 373.515C687.572 377.279 694.69 380.916 701.616 384.888C708.3 388.722 714.879 392.76 721.322 396.986C728.973 402.004 736.627 407.056 743.921 412.568C753.968 420.162 763.287 428.69 771.594 438.135C778.4 445.874 784.621 454.169 790.612 462.567C794.318 467.763 797.099 473.617 800.311 479.166C805.586 488.279 809.843 497.857 812.733 507.969C814.618 514.565 815.922 521.327 817.468 528.018C820.445 540.899 820.568 554.008 820.097 567.093C819.768 576.202 818.864 585.268 817.093 594.301C815.31 603.4 813.443 612.434 810.348 621.156C808.59 626.113 806.505 630.998 804.086 635.666C800.058 643.438 795.918 651.181 791.293 658.604C788.324 663.37 784.449 667.58 780.889 671.965C778.611 674.771 776.365 677.649 773.757 680.128C768.683 684.953 763.557 689.762 758.092 694.125C752.877 698.289 747.299 702.024 741.695 705.662C738.543 707.709 735.077 709.311 731.644 710.878C723.88 714.423 716.248 718.416 708.19 721.113C699.788 723.925 690.999 725.677 682.286 727.428C675.024 728.888 667.647 729.843 660.284 730.71C654.853 731.35 649.363 731.495 643.898 731.849C640.896 732.043 637.879 732.48 634.89 732.345C625.963 731.941 616.998 731.718 608.14 730.653C598.705 729.519 589.353 727.622 580.006 725.839C572.407 724.389 564.896 722.482 557.298 721.023C549.797 719.583 542.254 718.341 534.699 717.217C528.686 716.322 522.643 715.525 516.585 715.068C510.613 714.617 504.583 714.233 498.619 714.559C488.662 715.102 478.838 716.714 469.218 719.557C462.353 721.585 455.774 724.208 450.197 728.668C446.285 731.796 442.758 735.473 439.414 739.222C437.038 741.884 434.794 744.863 433.319 748.081C431.444 752.173 429.854 756.561 429.152 760.981C428.345 766.059 428.287 771.329 428.536 776.485C429.076 787.645 432.729 797.742 440.473 805.992C444.828 810.632 449.18 815.451 454.276 819.174C459.886 823.272 466.245 826.403 472.463 829.595C479.759 833.34 487.623 835.727 495.65 837.177C509.835 839.739 523.629 843.714 537.039 848.796C546.914 852.538 556.431 857.125 564.626 864.279C572.104 870.807 578.937 877.695 583.031 886.787C586.118 893.643 588.745 900.745 589.258 908.374C589.569 912.998 590.089 917.674 589.73 922.265C589.036 931.134 586.575 939.654 581.679 947.129C577.941 952.836 573.88 958.469 569.156 963.354C564.316 968.359 558.521 972.447 553.058 976.829C552.521 977.26 551.384 976.943 550.526 976.973C550.586 976.192 550.393 975.265 550.747 974.654C553.963 969.094 557.313 963.611 560.549 958.062C565.46 949.638 569.635 940.902 570.775 931.07C571.333 926.262 571.975 921.397 571.797 916.587C571.495 908.431 569.17 900.852 565.104 893.574C558.707 882.122 548.696 875.924 536.945 871.392C528.975 868.319 520.741 866.649 512.457 864.914C503.414 863.02 494.45 860.754 485.45 858.656C484.297 858.387 483.136 858.15 481.843 857.763M602.321 59.5101C606.838 58.6503 608.049 56.9382 605.506 52.7737C603.803 49.9831 601.793 47.066 599.204 45.1991C594.828 42.0439 589.931 39.7946 584.199 42.3521C581.228 43.6777 578.738 46.4907 578.959 49.0154C579.321 53.1635 582.762 57.2988 586.762 58.7177C591.781 60.4977 596.95 59.5101 602.321 59.5101Z" fill="#ffffff" fill-rule="nonzero" opacity="1" stroke="none" vectornator:layerName="path"/>
<path d="M689.25 138.561C703.647 138.561 717.774 138.638 731.898 138.499C734.889 138.47 736.843 139.987 736.56 143.21C736.346 145.636 736.518 148.096 736.518 150.541C736.518 154.486 735.812 155.099 731.848 155.427C724.082 156.071 716.329 156.871 708.568 157.57C704.104 157.972 699.628 158.251 695.166 158.674C686.397 159.505 677.64 160.456 669.665 164.649C663.069 168.117 658.678 173.534 655.413 180.185C651.455 188.246 649.942 196.899 648.548 205.586C647.246 213.703 646.238 221.872 645.273 230.038C644.573 235.952 644.028 241.891 643.644 247.834C643.151 255.463 642.695 263.103 642.564 270.744C642.261 288.415 642.15 306.089 641.99 323.762C641.939 329.407 641.976 335.053 641.986 340.698C641.989 342.521 641.633 343.397 639.513 342.336C632.544 338.848 625.515 335.479 618.476 332.136C616.564 331.228 615.839 329.969 615.855 327.798C615.953 314.85 615.974 301.901 615.884 288.953C615.795 276.35 615.754 263.74 615.279 251.15C615.002 243.826 613.969 236.528 613.169 229.23C612.535 223.453 611.954 217.657 610.955 211.938C609.874 205.747 608.28 199.647 607.009 193.487C605.611 186.711 602.789 180.554 599.115 174.751C595.59 169.184 590.987 164.699 584.716 162.537C577.567 160.073 570.292 157.899 562.951 156.085C558.602 155.01 554.034 154.67 549.539 154.363C541.823 153.835 534.086 153.61 526.359 153.221C523.679 153.085 522.685 151.193 522.498 148.907C522.306 146.569 522.314 144.191 522.495 141.851C522.676 139.505 523.969 138.508 526.53 138.511C580.68 138.577 634.829 138.561 689.25 138.561Z" fill="#ffffff" fill-rule="nonzero" opacity="1" stroke="none" vectornator:layerName="path"/>
<path d="M206.93 851.515C204.032 853.507 201.316 855.441 198.474 857.167C197.767 857.596 196.652 857.356 195.725 857.423C195.793 856.459 195.583 855.357 195.98 854.556C197.139 852.217 198.471 849.954 199.862 847.741C202.488 843.566 205.272 839.489 207.865 835.294C211.779 828.96 215.39 822.427 219.527 816.245C221.424 813.411 218.961 813.221 217.846 812.895C213.38 811.588 208.822 810.588 204.28 809.553C195.917 807.648 187.536 805.825 179.176 803.909C176.88 803.382 174.596 802.746 172.379 801.958C171.44 801.624 170.687 800.769 169.849 800.151C170.816 799.479 171.701 798.424 172.763 798.197C179.274 796.805 185.834 795.64 192.361 794.322C201.127 792.551 209.878 790.707 218.636 788.901C220.983 788.417 221.576 786.799 220.251 784.686C212.313 772.041 204.359 759.405 196.536 746.688C195.852 745.576 196.078 743.905 195.881 742.493C197.298 742.793 198.948 742.727 200.094 743.455C205.209 746.704 210.098 750.309 215.224 753.541C222.526 758.146 229.94 762.576 237.357 766.994C239.556 768.304 240.439 767.742 241.029 765.177C243.367 755.011 245.804 744.867 248.054 734.681C249.142 729.754 249.819 724.737 250.868 719.8C251.073 718.834 252.132 718.05 252.797 717.182C253.534 717.951 254.722 718.61 254.938 719.504C256.916 727.67 258.732 735.875 260.579 744.073C262.221 751.363 263.787 758.672 265.516 765.941C265.87 767.428 266.857 768.295 268.646 767.192C273.178 764.398 277.802 761.755 282.365 759.011C287.444 755.957 292.528 752.912 297.547 749.763C301.085 747.543 304.472 745.082 308.03 742.898C308.844 742.398 310.085 742.592 311.129 742.466C311.03 743.458 311.245 744.638 310.781 745.411C307.287 751.225 303.672 756.966 300.071 762.715C295.431 770.123 290.757 777.509 286.126 784.921C285.091 786.578 285.986 788.39 288.189 788.879C296.573 790.739 304.981 792.492 313.368 794.34C320.58 795.929 327.783 797.559 334.968 799.266C335.783 799.46 336.451 800.271 337.188 800.796C336.454 801.276 335.781 802.005 334.978 802.197C328.294 803.797 321.583 805.28 314.887 806.833C310.018 807.963 305.169 809.181 300.296 810.292C296.398 811.182 292.477 811.971 288.567 812.804C286.064 813.337 285.413 814.528 286.675 816.621C291.832 825.176 297.029 833.707 302.241 842.229C304.984 846.714 307.833 851.134 310.515 855.655C310.887 856.282 310.569 857.318 310.571 858.165C309.825 857.965 308.981 857.927 308.346 857.542C296.325 850.26 284.328 842.939 272.329 835.621C270.808 834.693 269.3 833.743 267.799 832.784C266.433 831.912 265.753 832.333 265.459 833.868C264.772 837.468 264.064 841.066 263.289 844.649C261.833 851.374 260.366 858.097 258.822 864.803C257.474 870.662 256.025 876.498 254.589 882.337C254.452 882.894 254.096 883.398 253.841 883.926C253.276 883.576 252.386 883.347 252.202 882.855C251.438 880.811 250.789 878.712 250.278 876.59C248.867 870.736 247.541 864.861 246.192 858.992C244.464 851.467 242.677 843.954 241.053 836.406C240.325 833.02 239.119 832.455 236.101 834.274C226.687 839.947 217.235 845.558 207.792 851.184C207.585 851.307 207.309 851.316 206.93 851.515Z" fill="#ffffff" fill-rule="nonzero" opacity="1" stroke="none" vectornator:layerName="path"/>
</g>
</svg>
